<?xml version="1.0" standalone="no"?>
<!DOCTYPE svg PUBLIC "-//W3C//DTD SVG 20010904//EN"
 "http://www.w3.org/TR/2001/REC-SVG-20010904/DTD/svg10.dtd">
<svg version="1.0" xmlns="http://www.w3.org/2000/svg"
 width="512.000000pt" height="512.000000pt" viewBox="0 0 512.000000 512.000000"
 preserveAspectRatio="xMidYMid meet">

<g transform="translate(0.000000,512.000000) scale(0.100000,-0.100000)"
fill="#000000" stroke="none">
<path d="M402 4325 c-66 -29 -63 27 -60 -1136 l3 -1051 33 -29 32 -29 650 0
650 0 0 -125 0 -125 -109 0 c-96 0 -112 -3 -141 -23 -40 -27 -67 -62 -76 -99
l-6 -28 576 0 576 0 0 24 c0 34 -40 88 -80 108 -27 14 -60 18 -142 18 l-108 0
0 125 0 125 645 0 c478 0 651 3 670 12 57 26 55 -24 55 1120 0 1169 5 1084
-66 1114 -51 21 -3053 20 -3102 -1z m1578 -30 c0 -21 -30 -31 -40 -14 -11 17
-3 29 21 29 10 0 19 -7 19 -15z m1479 -62 l21 -18 -2 -920 -3 -919 -25 -13
c-37 -19 -2983 -14 -3002 5 -10 10 -14 189 -16 905 -1 491 0 907 3 925 4 21
14 36 28 42 12 5 668 9 1498 9 1392 1 1478 0 1498 -16z m-124 -1979 c19 -20
16 -43 -7 -58 -38 -23 -78 35 -42 61 23 17 29 16 49 -3z m-129 -15 c10 -17
-13 -36 -27 -22 -12 12 -4 33 11 33 5 0 12 -5 16 -11z"/>
<path d="M3824 4330 c-12 -5 -29 -19 -38 -32 -15 -20 -16 -178 -16 -1729 l0
-1706 26 -27 27 -26 513 0 513 0 28 24 28 24 3 1689 c2 1213 0 1699 -8 1726
-20 68 -16 67 -567 66 -268 0 -498 -4 -509 -9z m973 -236 c3 -9 0 -20 -8 -25
-8 -5 -212 -9 -454 -9 -447 0 -471 2 -458 36 4 12 83 14 459 14 408 0 455 -2
461 -16z m1 -146 c3 -17 -24 -18 -457 -18 -296 0 -462 4 -466 10 -17 28 18 30
463 28 426 -3 457 -4 460 -20z m-10 -620 c16 -16 15 -53 -2 -67 -9 -8 -136
-10 -451 -9 -425 3 -438 4 -450 23 -9 13 -10 28 -4 43 l8 22 444 0 c331 0 446
-3 455 -12z m-10 -164 c26 -18 28 -46 6 -68 -14 -14 -68 -16 -449 -16 l-434 0
-15 22 c-20 29 -20 34 4 58 19 19 33 20 443 20 366 0 426 -2 445 -16z m4 -171
c22 -20 23 -46 2 -67 -14 -14 -68 -16 -445 -16 -416 0 -430 1 -449 20 -11 11
-20 25 -20 30 0 6 9 19 20 30 19 19 33 20 447 20 383 0 428 -2 445 -17z m2
-169 c22 -22 20 -50 -6 -68 -19 -14 -79 -16 -445 -16 -410 0 -424 1 -443 20
-24 24 -24 29 -4 58 l15 22 434 0 c381 0 435 -2 449 -16z m-371 -1214 c84 -93
-45 -226 -141 -145 -38 32 -48 72 -28 119 29 70 116 83 169 26z m-33 -371 c17
-31 4 -68 -27 -75 -31 -8 -53 4 -64 33 -19 51 66 90 91 42z"/>
<path d="M386 1215 c-93 -190 -166 -348 -164 -350 3 -3 786 -4 1741 -3 l1736
3 -168 345 -167 345 -1405 3 -1405 2 -168 -345z m3046 2 l137 -282 -1606 -3
c-884 -1 -1608 0 -1610 2 -5 5 26 71 166 359 l101 207 1338 0 1337 0 137 -283z"/>
<path d="M717 1435 l-17 -35 70 0 c67 0 70 1 85 30 8 16 15 31 15 35 0 3 -31
5 -68 5 -68 0 -68 0 -85 -35z"/>
<path d="M951 1439 c-6 -18 -11 -34 -11 -35 0 -2 31 -4 68 -4 64 0 70 2 80 25
7 14 12 30 12 35 0 6 -31 10 -69 10 -68 0 -69 0 -80 -31z"/>
<path d="M1180 1444 c-16 -42 -13 -44 58 -44 l69 0 10 35 11 35 -69 0 c-65 0
-70 -2 -79 -26z"/>
<path d="M1420 1444 c-16 -42 -13 -44 59 -44 68 0 69 0 80 31 6 18 11 34 11
35 0 2 -32 4 -70 4 -66 0 -71 -1 -80 -26z"/>
<path d="M1657 1463 c-4 -3 -7 -19 -7 -35 l0 -28 69 0 c67 0 69 1 74 27 3 16
3 31 0 35 -5 10 -127 11 -136 1z"/>
<path d="M1890 1435 l0 -35 70 0 70 0 0 35 0 35 -70 0 -70 0 0 -35z"/>
<path d="M2122 1438 l3 -33 74 -3 c72 -3 73 -3 67 20 -3 13 -6 29 -6 36 0 8
-21 12 -71 12 l-70 0 3 -32z"/>
<path d="M2350 1461 c0 -5 4 -21 10 -35 9 -24 14 -26 75 -26 57 0 65 2 65 19
0 45 -9 51 -81 51 -38 0 -69 -4 -69 -9z"/>
<path d="M2596 1443 c4 -16 9 -31 11 -35 4 -8 143 -12 143 -4 0 1 -5 17 -11
35 -11 31 -12 31 -80 31 l-69 0 6 -27z"/>
<path d="M2820 1455 c0 -44 18 -55 90 -55 l70 0 -13 33 c-13 31 -15 32 -80 35
-56 2 -67 0 -67 -13z"/>
<path d="M3050 1460 c0 -5 5 -21 12 -35 10 -23 16 -25 80 -25 71 0 75 3 56 45
-10 23 -16 25 -80 25 -37 0 -68 -4 -68 -10z"/>
<path d="M665 1330 c-8 -16 -15 -31 -15 -35 0 -3 31 -5 68 -5 64 0 70 2 80 25
19 42 15 45 -53 45 -61 0 -65 -1 -80 -30z"/>
<path d="M912 1335 c-7 -14 -12 -30 -12 -35 0 -6 31 -10 69 -10 68 0 69 0 80
31 6 18 11 34 11 35 0 2 -31 4 -68 4 -64 0 -70 -2 -80 -25z"/>
<path d="M1141 1329 c-6 -18 -11 -34 -11 -35 0 -2 32 -4 70 -4 66 0 71 1 80
26 16 42 13 44 -59 44 -68 0 -69 0 -80 -31z"/>
<path d="M1397 1353 c-2 -5 -7 -20 -11 -35 l-6 -28 69 0 c67 0 69 1 79 29 6
16 8 32 5 35 -9 9 -131 7 -136 -1z"/>
<path d="M1647 1353 c-4 -3 -7 -19 -7 -35 l0 -28 69 0 69 0 4 30 c3 17 2 32 0
35 -8 8 -128 6 -135 -2z"/>
<path d="M1890 1325 l0 -35 71 0 70 0 -3 33 -3 32 -67 3 -68 3 0 -36z"/>
<path d="M2132 1328 l3 -33 73 -3 c76 -3 78 -2 66 46 -6 20 -12 22 -76 22
l-69 0 3 -32z"/>
<path d="M2385 1328 c4 -18 9 -34 10 -36 1 -2 34 -2 72 0 l69 3 -8 33 -9 32
-70 0 -71 0 7 -32z"/>
<path d="M2630 1348 c0 -7 3 -23 6 -35 6 -21 12 -23 80 -23 l74 0 -13 33 c-13
31 -15 32 -80 35 -50 2 -67 0 -67 -10z"/>
<path d="M2860 1351 c0 -5 4 -21 10 -35 9 -25 13 -26 80 -26 69 0 71 1 64 23
-3 12 -11 28 -16 35 -12 14 -138 17 -138 3z"/>
<path d="M3100 1355 c0 -4 7 -19 15 -35 15 -29 18 -30 85 -30 l70 0 -17 35
c-17 35 -17 35 -85 35 -37 0 -68 -2 -68 -5z"/>
<path d="M605 1210 l-16 -30 74 0 c69 0 74 2 85 25 7 14 12 28 12 30 0 3 -31
5 -70 5 -67 0 -70 -1 -85 -30z"/>
<path d="M863 1210 l-11 -30 72 0 c70 0 72 0 83 30 l11 30 -72 0 c-70 0 -72 0
-83 -30z"/>
<path d="M1101 1210 l-10 -30 75 0 c40 0 74 3 74 8 0 4 3 17 6 30 6 21 4 22
-64 22 -69 0 -70 -1 -81 -30z"/>
<path d="M1360 1226 c0 -8 -3 -22 -6 -31 -6 -14 2 -16 67 -13 70 3 73 4 80 31
l7 27 -74 0 c-57 0 -74 -3 -74 -14z"/>
<path d="M1630 1210 l0 -30 70 0 70 0 0 30 0 30 -70 0 -70 0 0 -30z"/>
<path d="M1890 1210 l0 -30 70 0 70 0 0 30 0 30 -70 0 -70 0 0 -30z"/>
<path d="M2140 1226 c0 -40 11 -46 81 -46 71 0 78 5 63 44 -8 22 -144 24 -144
2z"/>
<path d="M2414 1225 c3 -9 6 -23 6 -31 0 -11 17 -14 74 -14 l74 0 -7 28 c-7
26 -10 27 -80 30 -65 3 -73 1 -67 -13z"/>
<path d="M2671 1210 c11 -29 12 -30 80 -30 38 0 69 3 69 8 0 4 -3 17 -6 30 -6
20 -12 22 -80 22 l-73 0 10 -30z"/>
<path d="M2900 1235 c0 -2 5 -16 12 -30 10 -23 16 -25 80 -25 37 0 68 2 68 4
0 3 -4 16 -10 30 -9 25 -14 26 -80 26 -38 0 -70 -2 -70 -5z"/>
<path d="M3160 1235 c0 -2 5 -16 12 -30 10 -23 16 -25 80 -25 37 0 68 2 68 5
0 2 -5 16 -12 30 -10 23 -16 25 -80 25 -37 0 -68 -2 -68 -5z"/>
<path d="M552 1105 c-7 -14 -12 -28 -12 -30 0 -3 31 -5 70 -5 67 0 70 1 85 30
l16 30 -74 0 c-69 0 -74 -2 -85 -25z"/>
<path d="M821 1100 l-10 -30 69 0 c58 0 71 3 80 19 19 36 12 41 -59 41 -68 0
-69 -1 -80 -30z"/>
<path d="M1070 1104 c-6 -14 -10 -27 -10 -30 0 -2 31 -4 69 -4 68 0 69 1 80
30 l10 30 -70 0 c-65 0 -70 -2 -79 -26z"/>
<path d="M1330 1116 c0 -8 -3 -22 -6 -31 -6 -14 2 -16 67 -13 70 3 73 4 80 31
l7 27 -74 0 c-57 0 -74 -3 -74 -14z"/>
<path d="M1620 1100 l0 -30 70 0 70 0 0 30 0 30 -70 0 -70 0 0 -30z"/>
<path d="M1890 1100 l0 -30 70 0 70 0 0 30 0 30 -70 0 -70 0 0 -30z"/>
<path d="M2150 1116 c0 -40 11 -46 82 -46 l69 0 -3 28 c-3 26 -5 27 -75 30
-59 2 -73 0 -73 -12z"/>
<path d="M2444 1115 c3 -9 6 -23 6 -31 0 -11 17 -14 74 -14 l74 0 -7 28 c-7
26 -10 27 -80 30 -65 3 -73 1 -67 -13z"/>
<path d="M2704 1114 c3 -9 6 -22 6 -30 0 -11 17 -14 74 -14 l75 0 -10 30 c-11
29 -12 30 -81 30 -60 0 -69 -2 -64 -16z"/>
<path d="M2951 1100 c11 -29 12 -30 80 -30 38 0 69 3 69 8 0 4 -3 17 -6 30 -6
20 -12 22 -80 22 l-73 0 10 -30z"/>
<path d="M3210 1125 c0 -2 5 -16 12 -30 11 -23 16 -25 85 -25 l74 0 -16 30
c-15 29 -18 30 -85 30 -39 0 -70 -2 -70 -5z"/>
<path d="M502 995 c-7 -14 -12 -28 -12 -30 0 -3 31 -5 68 -5 64 0 70 2 80 25
7 14 12 28 12 30 0 3 -31 5 -68 5 -64 0 -70 -2 -80 -25z"/>
<path d="M782 995 c-7 -14 -12 -28 -12 -30 0 -3 32 -5 70 -5 66 0 71 1 80 26
6 14 10 27 10 30 0 2 -31 4 -68 4 -64 0 -70 -2 -80 -25z"/>
<path d="M1031 990 l-10 -30 935 0 c513 0 934 3 934 8 0 4 -3 17 -6 30 l-6 22
-918 0 -918 0 -11 -30z"/>
<path d="M2993 990 c11 -30 13 -30 83 -30 l72 0 -11 30 c-11 30 -13 30 -83 30
l-72 0 11 -30z"/>
<path d="M3275 990 c15 -29 18 -30 85 -30 39 0 70 2 70 5 0 2 -5 16 -12 30
-11 23 -16 25 -85 25 l-74 0 16 -30z"/>
<path d="M212 808 l3 -23 1743 -3 1742 -2 0 25 0 25 -1746 0 -1745 0 3 -22z"/>
</g>
</svg>
